<svg id="Layer_1" enable-background="new 0 0 256 256" viewBox="0 0 256 256" xmlns="http://www.w3.org/2000/svg"><g><path d="m32.035 200.569c-7.535 0-13.665-6.13-13.665-13.665v-123.776c0-7.535 6.13-13.665 13.665-13.665h191.931c7.535 0 13.665 6.13 13.665 13.665v123.776c0 7.535-6.13 13.665-13.665 13.665z" fill="#cecece"/><g><path d="m28.37 186.905v-123.777c0-7.534 6.13-13.665 13.665-13.665h-10c-7.534 0-13.665 6.13-13.665 13.665v123.776c0 7.534 6.13 13.665 13.665 13.665h10c-7.535 0-13.665-6.13-13.665-13.664z" fill="#afafaf"/></g><g><path d="m227.63 186.905v-123.777c0-7.534-6.13-13.665-13.665-13.665h10c7.534 0 13.665 6.13 13.665 13.665v123.776c0 7.534-6.13 13.665-13.665 13.665h-10c7.535 0 13.665-6.13 13.665-13.664z" fill="#e2e2e2"/></g><path d="m229.221 174.905c0 2.891-2.365 5.256-5.256 5.256h-191.93c-2.891 0-5.256-2.365-5.256-5.256v-111.777c0-2.891 2.365-5.256 5.256-5.256h191.931c2.891 0 5.256 2.365 5.256 5.256v111.777z" fill="#63bce7"/><g><path d="m36.779 174.905v-111.777c0-2.891 2.365-5.256 5.256-5.256h-10c-2.891 0-5.256 2.365-5.256 5.256v111.777c0 2.891 2.365 5.256 5.256 5.256h10c-2.891-.001-5.256-2.366-5.256-5.256z" fill="#6377e7"/></g><g><path d="m219.221 174.905v-111.777c0-2.891-2.365-5.256-5.256-5.256h10c2.891 0 5.256 2.365 5.256 5.256v111.777c0 2.891-2.365 5.256-5.256 5.256h-10c2.891-.001 5.256-2.366 5.256-5.256z" fill="#63e2e7"/></g><path d="m89.809 222.728h76.383v9.197h-76.383z" fill="#9e9e9e"/><g><path d="m89.809 222.728h10v9.197h-10z" fill="#707070"/></g><path d="m100.67 200.569h54.659v22.158h-54.659z" fill="#cecece"/><g><path d="m100.67 200.569h10v22.158h-10z" fill="#afafaf"/></g><circle cx="128" cy="190.365" fill="#9e9e9e" r="4.5"/><path d="m188.979 40.496-27.393-27.394h-94.565v167.058h121.958z" fill="#f8af23"/><g><path d="m161.586 13.102h-10l27.393 27.394v139.664h10v-139.664z" fill="#f8d323"/></g><g><path d="m67.021 13.102h10v167.058h-10z" fill="#f87023"/></g><path d="m133.464 80.747h-87.962c-2.761 0-5-2.239-5-5v-35.75c0-2.761 2.239-5 5-5h87.962c2.761 0 5 2.239 5 5v35.75c0 2.762-2.239 5-5 5z" fill="#cecece"/><g><path d="m50.502 75.747v-35.75c0-2.761 2.239-5 5-5h-10c-2.761 0-5 2.239-5 5v35.75c0 2.761 2.239 5 5 5h10c-2.762 0-5-2.238-5-5z" fill="#afafaf"/></g><g fill="#3f3679"><g><path d="m58.27 64.512h4.25c.688 0 1.247.558 1.247 1.247v1.382c0 .688-.558 1.247-1.247 1.247h-9.308c-.688 0-1.247-.558-1.247-1.247v-18.418c0-.688.558-1.247 1.247-1.247h2.565c.688 0 1.247.558 1.247 1.247v14.543c-.001.688.557 1.246 1.246 1.246z"/><path d="m81.409 48.526c1.607.917 2.874 2.188 3.801 3.815s1.39 3.466 1.39 5.516c0 2.051-.469 3.895-1.405 5.531-.936 1.637-2.208 2.913-3.815 3.83s-3.387 1.376-5.338 1.376c-1.953 0-3.732-.459-5.339-1.376s-2.879-2.193-3.815-3.83c-.937-1.636-1.405-3.48-1.405-5.531 0-2.05.468-3.889 1.405-5.516.936-1.627 2.208-2.898 3.815-3.815s3.387-1.375 5.339-1.375c1.97 0 3.76.459 5.367 1.375zm-9.316 4.939c-.977 1.075-1.464 2.539-1.464 4.392 0 1.834.488 3.293 1.464 4.378s2.292 1.627 3.948 1.627c1.636 0 2.947-.542 3.933-1.627.986-1.084 1.479-2.543 1.479-4.378 0-1.834-.488-3.292-1.464-4.377-.976-1.084-2.292-1.627-3.948-1.627-1.657.001-2.972.538-3.948 1.612z"/><path d="m105.706 49.192c1.218.921 2.105 2.076 2.662 3.465.333.83-.257 1.741-1.152 1.741h-2.972c-.412 0-.803-.196-1.032-.539-.336-.502-.777-.919-1.322-1.251-.73-.444-1.607-.665-2.632-.665-1.598 0-2.879.537-3.845 1.611-.966 1.075-1.449 2.529-1.449 4.363 0 1.992.507 3.519 1.523 4.584 1.015 1.065 2.459 1.597 4.333 1.597 1.202 0 2.257-.33 3.164-.99.324-.236.615-.509.871-.817.66-.794.041-2.007-.992-2.007h-3.098c-.688 0-1.247-.558-1.247-1.247v-1.145c0-.688.558-1.247 1.247-1.247h8.125c.688 0 1.247.558 1.247 1.247v3.531c0 .146-.022.293-.07.431-.397 1.143-1.005 2.207-1.822 3.192-.868 1.045-1.977 1.893-3.327 2.543-1.351.651-2.894.976-4.629.976-2.11 0-3.953-.448-5.531-1.346-1.578-.897-2.795-2.154-3.653-3.771-.858-1.616-1.287-3.46-1.287-5.53 0-2.071.429-3.914 1.287-5.531.858-1.616 2.07-2.874 3.638-3.771s3.397-1.346 5.487-1.346c2.62-.001 4.779.64 6.476 1.922z"/><path d="m126.157 65.548c-.562.927-1.39 1.666-2.485 2.218-1.094.552-2.421.828-3.978.828-2.346 0-4.279-.571-5.796-1.715-1.089-.82-1.823-1.873-2.202-3.159-.239-.811.347-1.633 1.193-1.633h2.945c.534 0 .969.365 1.154.866.144.393.361.725.652.997.483.454 1.099.68 1.848.68.651 0 1.163-.177 1.538-.532.374-.355.562-.828.562-1.42 0-.532-.173-.976-.518-1.331s-.774-.646-1.287-.873-1.223-.498-2.129-.813c-1.321-.454-2.401-.892-3.239-1.316-.838-.423-1.558-1.055-2.159-1.893-.602-.838-.902-1.927-.902-3.268 0-1.242.315-2.317.946-3.224s1.503-1.601 2.618-2.085c1.114-.483 2.39-.725 3.83-.725 2.326 0 4.175.552 5.546 1.656.955.771 1.621 1.742 1.996 2.914.259.808-.342 1.641-1.191 1.641h-3.007c-.523 0-.966-.339-1.165-.823-.131-.318-.31-.591-.537-.818-.405-.404-.951-.606-1.642-.606-.591 0-1.07.158-1.434.473-.366.315-.547.779-.547 1.39 0 .493.162.912.488 1.257.325.345.734.627 1.227.843.493.217 1.202.493 2.129.828 1.341.454 2.435.902 3.283 1.346s1.577 1.09 2.188 1.937.918 1.953.918 3.313c0 1.104-.281 2.12-.843 3.047z"/></g><g><path d="m128 196.365c3.309 0 6-2.691 6-6s-2.691-6-6-6-6 2.691-6 6 2.691 6 6 6zm0-9c1.654 0 3 1.346 3 3s-1.346 3-3 3-3-1.346-3-3 1.346-3 3-3z"/><path d="m27.323 241.398h-18.003c-.828 0-1.5.671-1.5 1.5s.672 1.5 1.5 1.5h18.003c.828 0 1.5-.671 1.5-1.5s-.672-1.5-1.5-1.5z"/><path d="m246.68 241.398h-18.003c-.828 0-1.5.671-1.5 1.5s.672 1.5 1.5 1.5h18.003c.828 0 1.5-.671 1.5-1.5s-.672-1.5-1.5-1.5z"/><path d="m218.479 241.398h-180.958c-.828 0-1.5.671-1.5 1.5s.672 1.5 1.5 1.5h180.959c.828 0 1.5-.671 1.5-1.5s-.672-1.5-1.501-1.5z"/><path d="m9.32 233.425h80.488 76.383 80.488c.828 0 1.5-.671 1.5-1.5s-.672-1.5-1.5-1.5h-78.988v-7.697c0-.829-.672-1.5-1.5-1.5h-9.362v-19.158h67.137c8.361 0 15.164-6.803 15.164-15.165v-123.777c0-8.362-6.803-15.165-15.164-15.165h-33.486v-7.468c0-.398-.158-.779-.439-1.061l-27.394-27.394c-.281-.281-.663-.439-1.061-.439h-94.565c-.828 0-1.5.671-1.5 1.5v20.396h-20.019c-3.584 0-6.5 2.916-6.5 6.5v7.966h-6.968c-8.361 0-15.164 6.803-15.164 15.165v123.776c0 8.362 6.803 15.165 15.164 15.165h67.137v19.158h-9.362c-.828 0-1.5.671-1.5 1.5v7.697h-78.989c-.828 0-1.5.671-1.5 1.5s.672 1.501 1.5 1.501zm153.766-216.702 22.272 22.272h-22.272zm27.393 42.65h33.486c2.07 0 3.755 1.685 3.755 3.755v111.777c0 2.071-1.685 3.756-3.755 3.756h-33.486zm-121.958-44.771h91.565v25.894c0 .829.672 1.5 1.5 1.5h25.894v136.665h-118.959v-96.413h64.943c3.584 0 6.5-2.916 6.5-6.5v-35.75c0-3.584-2.916-6.5-6.5-6.5h-64.943zm-36.487 164.059c-2.07 0-3.755-1.685-3.755-3.756v-111.777c0-2.071 1.685-3.755 3.755-3.755h6.968v16.375c0 3.584 2.916 6.5 6.5 6.5h20.019v96.413zm9.968-138.663c0-1.93 1.57-3.5 3.5-3.5h87.962c1.93 0 3.5 1.57 3.5 3.5v35.75c0 1.93-1.57 3.5-3.5 3.5h-87.962c-1.93 0-3.5-1.57-3.5-3.5zm-22.132 146.907v-123.777c0-6.708 5.457-12.165 12.164-12.165h6.968v5.409h-6.968c-3.725 0-6.755 3.03-6.755 6.755v111.777c0 3.725 3.03 6.756 6.755 6.756h34.986 121.959 34.986c3.725 0 6.755-3.031 6.755-6.756v-111.776c0-3.725-3.03-6.755-6.755-6.755h-33.486v-5.409h33.486c6.707 0 12.164 5.457 12.164 12.165v123.776c0 6.708-5.457 12.165-12.164 12.165h-68.637-54.658-68.636c-6.707-.001-12.164-5.458-12.164-12.165zm82.301 15.164h51.658v19.158h-51.658zm-10.862 22.159h9.362 54.658 9.362v6.197h-73.382z"/><path d="m91.885 110.132c.293.293.677.439 1.061.439s.768-.146 1.061-.439c.586-.585.586-1.535 0-2.121l-9.533-9.534 9.533-9.534c.586-.586.586-1.536 0-2.121-.586-.586-1.535-.586-2.121 0l-10.595 10.595c-.586.586-.586 1.535 0 2.121z"/><path d="m112.982 110.132c.293.293.677.439 1.061.439s.768-.146 1.061-.439l10.594-10.594c.586-.586.586-1.535 0-2.121l-10.594-10.594c-.586-.586-1.535-.586-2.121 0-.586.585-.586 1.535 0 2.121l9.533 9.534-9.533 9.534c-.587.585-.587 1.534-.001 2.12z"/><path d="m98.721 110.465c.182.073.369.107.555.107.596 0 1.159-.358 1.394-.945l8.438-21.188c.307-.77-.069-1.642-.839-1.949-.765-.306-1.642.068-1.948.838l-8.438 21.188c-.308.77.068 1.642.838 1.949z"/><path d="m80.852 122.5c0 .829.672 1.5 1.5 1.5h90.398c.828 0 1.5-.671 1.5-1.5s-.672-1.5-1.5-1.5h-90.398c-.829 0-1.5.671-1.5 1.5z"/><path d="m172.75 131.806h-90.398c-.828 0-1.5.671-1.5 1.5s.672 1.5 1.5 1.5h90.398c.828 0 1.5-.671 1.5-1.5s-.672-1.5-1.5-1.5z"/><path d="m172.75 142.612h-90.398c-.828 0-1.5.671-1.5 1.5s.672 1.5 1.5 1.5h90.398c.828 0 1.5-.671 1.5-1.5s-.672-1.5-1.5-1.5z"/><path d="m172.75 153.418h-90.398c-.828 0-1.5.671-1.5 1.5s.672 1.5 1.5 1.5h90.398c.828 0 1.5-.671 1.5-1.5s-.672-1.5-1.5-1.5z"/><path d="m172.75 164.225h-90.398c-.828 0-1.5.671-1.5 1.5s.672 1.5 1.5 1.5h90.398c.828 0 1.5-.671 1.5-1.5s-.672-1.5-1.5-1.5z"/></g></g></g></svg>